<svg id="visual" viewBox="0 0 900 600" width="900" height="600" xmlns="http://www.w3.org/2000/svg" xmlns:xlink="http://www.w3.org/1999/xlink" version="1.1"><rect x="0" y="0" width="900" height="600" fill="#001220"></rect><defs><linearGradient id="grad1_0" x1="33.3%" y1="0%" x2="100%" y2="100%"><stop offset="20%" stop-color="#001220" stop-opacity="1"></stop><stop offset="80%" stop-color="#001220" stop-opacity="1"></stop></linearGradient></defs><defs><linearGradient id="grad2_0" x1="0%" y1="0%" x2="66.7%" y2="100%"><stop offset="20%" stop-color="#001220" stop-opacity="1"></stop><stop offset="80%" stop-color="#001220" stop-opacity="1"></stop></linearGradient></defs><g transform="translate(900, 0)"><path d="M0 486.7C-61.3 470.7 -122.6 454.6 -177.9 429.6C-233.3 404.6 -282.6 370.8 -330.2 330.2C-377.9 289.7 -423.9 242.4 -449.7 186.3C-475.5 130.1 -481.1 65.1 -486.7 0L0 0Z" fill="#FBAE3C"></path></g><g transform="translate(0, 600)"><path d="M0 -486.7C58.4 -458.8 116.8 -430.8 166.1 -401C215.4 -371.2 255.6 -339.6 306.2 -306.2C356.8 -272.8 417.9 -237.6 449.7 -186.3C481.5 -134.9 484.1 -67.5 486.7 0L0 0Z" fill="#FBAE3C"></path></g></svg>