<svg id="visual" viewBox="0 0 900 600" width="900" height="600" xmlns="http://www.w3.org/2000/svg" xmlns:xlink="http://www.w3.org/1999/xlink" version="1.1"><rect x="0" y="0" width="900" height="600" fill="#001122"></rect><defs><linearGradient id="grad1_0" x1="33.3%" y1="0%" x2="100%" y2="100%"><stop offset="20%" stop-color="#001122" stop-opacity="1"></stop><stop offset="80%" stop-color="#001122" stop-opacity="1"></stop></linearGradient></defs><defs><linearGradient id="grad2_0" x1="0%" y1="0%" x2="66.7%" y2="100%"><stop offset="20%" stop-color="#001122" stop-opacity="1"></stop><stop offset="80%" stop-color="#001122" stop-opacity="1"></stop></linearGradient></defs><g transform="translate(900, 0)"><path d="M0 486.7C-92.1 478.1 -184.2 469.4 -243.4 421.5C-302.5 373.7 -328.7 286.8 -363.7 210C-398.8 133.2 -442.8 66.6 -486.7 0L0 0Z" fill="#0066FF"></path></g><g transform="translate(0, 600)"><path d="M0 -486.7C81.5 -468.6 163.1 -450.5 238 -412.2C312.9 -373.9 381.2 -315.4 421.5 -243.4C461.9 -171.3 474.3 -85.7 486.7 0L0 0Z" fill="#0066FF"></path></g></svg>